<svg xmlns="http://www.w3.org/2000/svg" viewBox="0 0 135.21 60.76">
  <title>Cloud 3</title>
  <g id="Layer_2" data-name="Layer 2">
    <g id="Layer_1-2" data-name="Layer 1">
      <path d="M.5,53.12c0,9.77,13.65,4.47,43.89,4.47,25,0,55.21,6.54,61.78-.85,11.81-.32,28.54-3.16,28.54-14.48,0-11.53-6.6-22.16-21.3-25.57-3.27-.76-12.71.29-15.55,1.57C96,8.27,81.92.5,64.84.5c-18.36,0-33.24,9-33.24,20a24.33,24.33,0,0,0,.86,3.83c-5.79,3.7-10.18,8.29-10.61,14.75C8.86,42.34.5,47.41.5,53.12Z" style="fill: #eff9f9;stroke: #2d2d2d;stroke-miterlimit: 10"/>
    </g>
  </g>
</svg>
