<svg xmlns="http://www.w3.org/2000/svg" viewBox="0 0 135.21 60.76">
  <title>Cloud 4</title>
  <g id="Layer_2" data-name="Layer 2">
    <g id="Layer_1-2" data-name="Layer 1">
      <path d="M134.71,53.12c0,9.77-13.64,4.47-43.88,4.47-25,0-55.22,6.54-61.78-.85C17.23,56.42.5,53.58.5,42.26.5,30.73,7.1,20.1,21.8,16.69c3.27-.76,12.71.29,15.56,1.57C39.22,8.27,53.29.5,70.38.5c18.35,0,33.23,9,33.23,20a25.47,25.47,0,0,1-.85,3.83c5.78,3.7,10.17,8.29,10.61,14.75C126.35,42.34,134.71,47.41,134.71,53.12Z" style="fill: #eff9f9;stroke: #2d2d2d;stroke-miterlimit: 10"/>
    </g>
  </g>
</svg>
