<svg xmlns="http://www.w3.org/2000/svg" viewBox="0 0 152.19 88.5">
  <title>Cloud 1</title>
  <g id="Layer_2" data-name="Layer 2">
    <g id="Layer_1-2" data-name="Layer 1">
      <path d="M151.69,67.17C151.69,79.82,111.38,88,71.93,88S.5,77.74.5,65.08C.5,56.87,14,49.66,34.24,45.62a13.91,13.91,0,0,1-1.6-6.43c0-8.12,4.46-11.89,14.88-14.88C53.17,9.76,70.6.5,86.21.5c20.71,0,36.31,13.82,36.31,36a43.48,43.48,0,0,1-.67,7.63c6,2.32,11.73,7.07,13.77,11.12C141.31,58.55,151.69,63.14,151.69,67.17Z" style="fill: #eff9f9;stroke: #2d2d2d;stroke-miterlimit: 10"/>
    </g>
  </g>
</svg>
