<svg xmlns="http://www.w3.org/2000/svg" viewBox="0 0 286.5 77.96">
  <title>Cloud 2</title>
  <g id="Layer_2" data-name="Layer 2">
    <g id="Layer_1-2" data-name="Layer 1">
      <path d="M286,38.36C286,49,270.86,57.6,252.17,57.6a57.44,57.44,0,0,1-10.78-1c-14.31,12.17-52.16,20.86-96.59,20.86-33.54,0-63.34-4.95-82.08-12.62a61.81,61.81,0,0,1-20.33,3.31C19.26,68.15.5,56.34.5,41.77S19.26,15.4,42.39,15.4a60.58,60.58,0,0,1,22.85,4.27C72.27,8.45,89.82.5,110.36.5c17,0,32,5.46,40.61,13.72,30.37.54,57.19,5.17,74.8,12.11,6.2-4.39,15.72-7.21,26.4-7.21C270.86,19.12,286,27.73,286,38.36Z" style="fill: #eff9f9;stroke: #2d2d2d;stroke-miterlimit: 10"/>
    </g>
  </g>
</svg>
